<svg version="1.1" xmlns="http://www.w3.org/2000/svg">
    <defs>
        <symbol id="nectaricon-alert-sign" viewBox="0 0 24 24"><path d="M18 16v-5c0-3.07-1.64-5.64-4.5-6.32V4c0-.83-.67-1.5-1.5-1.5s-1.5.67-1.5 1.5v.68C7.63 5.36 6 7.92 6 11v5l-2 2v1h16v-1l-2-2zm-5 0h-2v-2h2v2zm0-4h-2V8h2v4zm-1 10c1.1 0 2-.9 2-2h-4c0 1.1.89 2 2 2z"/><path fill="none" d="M0 0h24v24H0V0z"/></symbol>
        <symbol id="nectaricon-limit-unset" viewBox="0 0 24 24"><path fill="none" d="M0 0h24v24H0V0z"/><path d="M17 7h-4v1.9h4c1.71 0 3.1 1.39 3.1 3.1 0 1.43-.98 2.63-2.31 2.98l1.46 1.46C20.88 15.61 22 13.95 22 12c0-2.76-2.24-5-5-5zm-1 4h-2.19l2 2H16zM2 4.27l3.11 3.11C3.29 8.12 2 9.91 2 12c0 2.76 2.24 5 5 5h4v-1.9H7c-1.71 0-3.1-1.39-3.1-3.1 0-1.59 1.21-2.9 2.76-3.07L8.73 11H8v2h2.73L13 15.27V17h1.73l4.01 4L20 19.74 3.27 3 2 4.27z"/><path fill="none" d="M0 24V0"/></symbol>
        <symbol id="nectaricon-clock" viewBox="0 0 24 24"><path d="M0 0h24v24H0z" fill="none"/><path d="M15 1H9v2h6V1zm-4 13h2V8h-2v6zm8.03-6.61l1.42-1.42c-.43-.51-.9-.99-1.41-1.41l-1.42 1.42C16.07 4.74 14.12 4 12 4c-4.97 0-9 4.03-9 9s4.02 9 9 9 9-4.03 9-9c0-2.12-.74-4.07-1.97-5.61zM12 20c-3.87 0-7-3.13-7-7s3.13-7 7-7 7 3.13 7 7-3.13 7-7 7z"/></symbol>
        <symbol id="nectaricon-search" viewBox="0 0 24 24"><path fill="none" d="M0 0h24v24H0V0z"/><path d="M15.5 14h-.79l-.28-.27C15.41 12.59 16 11.11 16 9.5 16 5.91 13.09 3 9.5 3S3 5.91 3 9.5 5.91 16 9.5 16c1.61 0 3.09-.59 4.23-1.57l.27.28v.79l5 4.99L20.49 19l-4.99-5zm-6 0C7.01 14 5 11.99 5 9.5S7.01 5 9.5 5 14 7.01 14 9.5 11.99 14 9.5 14z"/></symbol>
        <symbol id="nectaricon-add-contact" viewBox="0 0 24 24"><defs><clipPath id="a"><rect width="24" height="24" fill="none"/></clipPath></defs><g clip-path="url(#a)"><rect width="24" height="24" fill="#fff" opacity="0"/><rect width="10" height="10" transform="translate(22.881 5.571) rotate(90)" fill="none"/><g transform="translate(-1044.333 112.667)"><g transform="translate(1065.899 -107.61) rotate(90)"><rect width="1.591" height="6.364" rx="0.5" transform="translate(2.386)"/><rect width="1.591" height="6.364" rx="0.5" transform="translate(6.364 2.386) rotate(90)"/></g><path d="M10.667,10.667A3.333,3.333,0,1,0,7.333,7.333,3.332,3.332,0,0,0,10.667,10.667Zm0,1.667C8.442,12.333,4,13.45,4,15.667v1.667H17.333V15.667C17.333,13.45,12.892,12.333,10.667,12.333Z" transform="translate(1042.333 -111.667)"/></g></g></symbol>
        <symbol id="nectaricon-thumbs-up" viewBox="0 0 24 24"><path opacity=".87" fill="none" d="M0 0h24v24H0V0z"/><path d="M21 8h-6.31l.95-4.57.03-.32c0-.41-.17-.79-.44-1.06L14.17 1 7.59 7.59C7.22 7.95 7 8.45 7 9v10c0 1.1.9 2 2 2h9c.83 0 1.54-.5 1.84-1.22l3.02-7.05c.09-.23.14-.47.14-.73v-2c0-1.1-.9-2-2-2zm0 4l-3 7H9V9l4.34-4.34L12.23 10H21v2zM1 9h4v12H1z"/></symbol>
        <symbol id="nectaricon-value-not-found" viewBox="0 0 24 24"><title>valor-nao-encontrado</title><path class="a" d="M0,0H24V24H0Z"/><path class="a" d="M0,0H24V24H0Z"/><path class="a" d="M0,0H24V24H0Z"/><path d="M12,4.58a4.51,4.51,0,0,1,4.5,4.5V11.2L19,13.7V9.08a7,7,0,0,0-7-7,6.83,6.83,0,0,0-3.6,1l1.84,1.84A4.5,4.5,0,0,1,12,4.58Z"/><path d="M21.72,20,4.05,2.28,2.28,4.05l3,3a6.64,6.64,0,0,0-.31,2v5.84a7,7,0,0,0,12.47,4.32L20,21.72ZM12,19.42a4.51,4.51,0,0,1-4.5-4.5V9.27l8.2,8.2A4.5,4.5,0,0,1,12,19.42Z"/></symbol>
        <symbol id="nectaricon-warning-sign" viewBox="0 0 20 20"><defs><clipPath id="a"><rect width="20" height="20" fill="none"/></clipPath></defs><g clip-path="url(#a)"><path d="M0,0H20V20H0Z" fill="none"/><path d="M8.315,16.63a1.823,1.823,0,0,1-1.3-.536L.536,9.611a1.836,1.836,0,0,1,0-2.593L7.018.536a1.835,1.835,0,0,1,2.593,0l6.481,6.482a1.836,1.836,0,0,1,0,2.593L9.611,16.093A1.823,1.823,0,0,1,8.315,16.63ZM7.4,10.149v1.833H9.231V10.149Zm0-5.5V8.315H9.231V4.648Z" transform="translate(1.686 1.685)"/></g></symbol>
        <symbol id="nectaricon-warning-sign-old" viewBox="0 0 24 24"><path d="M1 21h22L12 2 1 21zm12-3h-2v-2h2v2zm0-4h-2v-4h2v4z"/></symbol>
    </defs>
</svg>
